<svg width="305" height="305" viewBox="0 0 305 305" fill="none" xmlns="http://www.w3.org/2000/svg">
<circle cx="187.5" cy="12.5" r="12.5" fill="#D9D9D9"/>
<circle cx="187.5" cy="47.5" r="12.5" fill="#D9D9D9"/>
<circle cx="187.5" cy="82.5" r="12.5" fill="#D9D9D9"/>
<circle cx="187.5" cy="117.5" r="12.5" fill="#D9D9D9"/>
<circle cx="187.5" cy="152.5" r="12.5" fill="#D9D9D9"/>
<circle cx="187.5" cy="187.5" r="12.5" fill="#D9D9D9"/>
<circle cx="187.5" cy="222.5" r="12.5" fill="#D9D9D9"/>
<circle cx="187.5" cy="257.5" r="12.5" fill="#D9D9D9"/>
<circle cx="187.5" cy="292.5" r="12.5" fill="#D9D9D9"/>
<circle cx="47.5" cy="12.5" r="12.5" fill="#D9D9D9"/>
<circle cx="47.5" cy="47.5" r="12.5" fill="#D9D9D9"/>
<circle cx="47.5" cy="82.5" r="12.5" fill="#D9D9D9"/>
<circle cx="47.5" cy="117.5" r="12.5" fill="#D9D9D9"/>
<circle cx="47.5" cy="152.5" r="12.5" fill="#D9D9D9"/>
<circle cx="47.5" cy="187.5" r="12.5" fill="#D9D9D9"/>
<circle cx="47.5" cy="222.5" r="12.5" fill="#D9D9D9"/>
<circle cx="47.5" cy="257.5" r="12.5" fill="#D9D9D9"/>
<circle cx="47.5" cy="292.5" r="12.5" fill="#D9D9D9"/>
<circle cx="82.5" cy="12.5" r="12.5" fill="#D9D9D9"/>
<circle cx="82.5" cy="47.5" r="12.5" fill="#D9D9D9"/>
<circle cx="82.5" cy="82.5" r="12.5" fill="#D9D9D9"/>
<circle cx="82.5" cy="117.5" r="12.5" fill="#D9D9D9"/>
<circle cx="82.5" cy="152.5" r="12.5" fill="#D9D9D9"/>
<circle cx="82.5" cy="187.5" r="12.5" fill="#D9D9D9"/>
<circle cx="82.5" cy="222.5" r="12.5" fill="#D9D9D9"/>
<circle cx="82.5" cy="257.5" r="12.5" fill="#D9D9D9"/>
<circle cx="82.5" cy="292.5" r="12.5" fill="#D9D9D9"/>
<circle cx="222.5" cy="12.5" r="12.5" fill="#D9D9D9"/>
<circle cx="222.5" cy="47.5" r="12.5" fill="#D9D9D9"/>
<circle cx="222.5" cy="82.5" r="12.5" fill="#D9D9D9"/>
<circle cx="222.5" cy="117.5" r="12.5" fill="#D9D9D9"/>
<circle cx="222.5" cy="152.5" r="12.5" fill="#D9D9D9"/>
<circle cx="222.5" cy="187.5" r="12.5" fill="#D9D9D9"/>
<circle cx="222.5" cy="222.5" r="12.5" fill="#D9D9D9"/>
<circle cx="222.5" cy="257.5" r="12.5" fill="#D9D9D9"/>
<circle cx="222.5" cy="292.5" r="12.5" fill="#D9D9D9"/>
<circle cx="12.5" cy="12.5" r="12.5" fill="#D9D9D9"/>
<circle cx="12.5" cy="47.5" r="12.5" fill="#D9D9D9"/>
<circle cx="12.5" cy="82.5" r="12.5" fill="#D9D9D9"/>
<circle cx="12.5" cy="117.5" r="12.5" fill="#D9D9D9"/>
<circle cx="12.5" cy="152.5" r="12.5" fill="#D9D9D9"/>
<circle cx="12.5" cy="187.5" r="12.5" fill="#D9D9D9"/>
<circle cx="12.5" cy="222.5" r="12.5" fill="#D9D9D9"/>
<circle cx="12.5" cy="257.5" r="12.5" fill="#D9D9D9"/>
<circle cx="12.5" cy="292.5" r="12.5" fill="#D9D9D9"/>
<circle cx="257.5" cy="12.5" r="12.5" fill="#D9D9D9"/>
<circle cx="292.5" cy="12.5" r="12.5" fill="#D9D9D9"/>
<circle cx="257.5" cy="47.5" r="12.5" fill="#D9D9D9"/>
<circle cx="292.5" cy="47.5" r="12.5" fill="#D9D9D9"/>
<circle cx="257.5" cy="82.5" r="12.5" fill="#D9D9D9"/>
<circle cx="292.5" cy="82.5" r="12.5" fill="#D9D9D9"/>
<circle cx="257.5" cy="117.5" r="12.5" fill="#D9D9D9"/>
<circle cx="292.5" cy="117.5" r="12.5" fill="#D9D9D9"/>
<circle cx="257.5" cy="152.5" r="12.5" fill="#D9D9D9"/>
<circle cx="292.5" cy="152.5" r="12.5" fill="#D9D9D9"/>
<circle cx="257.5" cy="187.5" r="12.5" fill="#D9D9D9"/>
<circle cx="292.5" cy="187.5" r="12.5" fill="#D9D9D9"/>
<circle cx="257.5" cy="222.5" r="12.5" fill="#D9D9D9"/>
<circle cx="292.5" cy="222.5" r="12.5" fill="#D9D9D9"/>
<circle cx="257.5" cy="257.5" r="12.5" fill="#D9D9D9"/>
<circle cx="292.5" cy="257.5" r="12.5" fill="#D9D9D9"/>
<circle cx="257.5" cy="292.5" r="12.5" fill="#D9D9D9"/>
<circle cx="292.5" cy="292.5" r="12.5" fill="#D9D9D9"/>
<circle cx="117.5" cy="12.5" r="12.5" fill="#D9D9D9"/>
<circle cx="117.5" cy="47.5" r="12.5" fill="#D9D9D9"/>
<circle cx="117.5" cy="82.5" r="12.5" fill="#D9D9D9"/>
<circle cx="117.5" cy="117.5" r="12.5" fill="#D9D9D9"/>
<circle cx="117.5" cy="152.5" r="12.5" fill="#D9D9D9"/>
<circle cx="117.5" cy="187.5" r="12.5" fill="#D9D9D9"/>
<circle cx="117.5" cy="222.5" r="12.5" fill="#D9D9D9"/>
<circle cx="117.5" cy="257.5" r="12.5" fill="#D9D9D9"/>
<circle cx="117.5" cy="292.5" r="12.5" fill="#D9D9D9"/>
<circle cx="152.5" cy="12.5" r="12.5" fill="#D9D9D9"/>
<circle cx="152.5" cy="47.5" r="12.5" fill="#D9D9D9"/>
<circle cx="152.5" cy="82.5" r="12.5" fill="#D9D9D9"/>
<circle cx="152.5" cy="117.5" r="12.5" fill="#D9D9D9"/>
<circle cx="152.5" cy="152.5" r="12.5" fill="#D9D9D9"/>
<circle cx="152.5" cy="187.5" r="12.5" fill="#D9D9D9"/>
<circle cx="152.5" cy="222.5" r="12.5" fill="#D9D9D9"/>
<circle cx="152.5" cy="257.5" r="12.5" fill="#D9D9D9"/>
<circle cx="152.5" cy="292.5" r="12.5" fill="#D9D9D9"/>
</svg>
